<svg xmlns="http://www.w3.org/2000/svg" xmlns:xlink="http://www.w3.org/1999/xlink" width="500" zoomAndPan="magnify" viewBox="0 0 375 374.999991" height="500" preserveAspectRatio="xMidYMid meet" version="1.0"><defs><g/><clipPath id="id1"><path d="M 90 142.820312 L 104 142.820312 L 104 225 L 90 225 Z M 90 142.820312 " clip-rule="nonzero"/></clipPath><clipPath id="id2"><path d="M 59 185 L 139 185 L 139 232.070312 L 59 232.070312 Z M 59 185 " clip-rule="nonzero"/></clipPath></defs><path fill="#000000" d="M 90.992188 176.816406 L 85.199219 172.832031 Z M 90.992188 176.816406 " fill-opacity="1" fill-rule="nonzero"/><path fill="#ff5c00" d="M 85.199219 152.210938 L 88.589844 149.878906 L 88.589844 173.742188 L 85.199219 171.410156 L 85.199219 152.210938 " fill-opacity="1" fill-rule="nonzero"/><g clip-path="url(#id1)"><path fill="#ff5c00" d="M 103.457031 144.917969 L 103.457031 189.8125 L 103.222656 189.855469 L 103.222656 221.882812 C 102.996094 221.953125 102.769531 222.023438 102.539062 222.089844 C 99.089844 223.132812 95.582031 223.882812 92.160156 224.320312 L 92.160156 176.203125 L 91.65625 175.851562 L 90.164062 174.824219 L 90.453125 174.824219 L 90.453125 148.597656 L 95.570312 145.078125 L 95.570312 163.761719 L 96.59375 163.761719 L 96.59375 144.375 L 98.835938 142.835938 L 103.457031 144.917969 " fill-opacity="1" fill-rule="nonzero"/></g><path fill="#ff5c00" d="M 116.167969 150.648438 L 116.167969 187.363281 L 105.324219 189.453125 L 105.324219 145.757812 L 108.28125 147.09375 L 108.28125 157.609375 L 109.304688 157.609375 L 109.304688 147.554688 L 113.957031 149.652344 L 113.957031 171.050781 L 114.980469 171.050781 L 114.980469 150.113281 L 116.167969 150.648438 " fill-opacity="1" fill-rule="nonzero"/><path fill="#ff914d" d="M 118.472656 191.164062 C 118.144531 191.222656 117.300781 191.371094 116.167969 191.578125 C 112.882812 192.167969 107.210938 193.203125 105.035156 193.6875 L 105.035156 191.929688 C 107.210938 191.445312 112.882812 190.410156 116.167969 189.820312 C 117.300781 189.613281 118.144531 189.460938 118.472656 189.40625 Z M 118.472656 194.417969 C 118.144531 194.476562 117.300781 194.628906 116.167969 194.832031 C 112.882812 195.425781 107.210938 196.460938 105.035156 196.941406 L 105.035156 195.183594 C 107.210938 194.703125 112.882812 193.664062 116.167969 193.074219 C 117.300781 192.871094 118.144531 192.71875 118.472656 192.660156 Z M 118.472656 197.671875 C 118.144531 197.730469 117.300781 197.882812 116.167969 198.089844 C 112.882812 198.679688 107.210938 199.71875 105.035156 200.199219 L 105.035156 198.441406 C 107.210938 197.960938 112.882812 196.921875 116.167969 196.332031 C 117.300781 196.125 118.144531 195.972656 118.472656 195.917969 Z M 118.472656 200.929688 C 118.144531 200.988281 117.300781 201.140625 116.167969 201.34375 C 112.882812 201.9375 107.210938 202.972656 105.035156 203.457031 L 105.035156 201.699219 C 107.210938 201.214844 112.882812 200.179688 116.167969 199.585938 C 117.300781 199.378906 118.144531 199.230469 118.472656 199.171875 Z M 118.472656 204.1875 C 118.144531 204.242188 117.300781 204.394531 116.167969 204.601562 C 112.882812 205.191406 107.210938 206.226562 105.035156 206.710938 L 105.035156 204.953125 C 107.210938 204.46875 112.882812 203.433594 116.167969 202.839844 C 117.300781 202.636719 118.144531 202.484375 118.472656 202.429688 Z M 118.472656 207.441406 C 118.144531 207.5 117.300781 207.652344 116.167969 207.855469 C 112.882812 208.449219 107.210938 209.484375 105.035156 209.96875 L 105.035156 208.210938 C 107.210938 207.726562 112.882812 206.6875 116.167969 206.097656 C 117.300781 205.894531 118.144531 205.742188 118.472656 205.683594 Z M 118.472656 210.699219 C 118.144531 210.757812 117.300781 210.90625 116.167969 211.109375 C 112.882812 211.703125 107.210938 212.742188 105.035156 213.222656 L 105.035156 211.464844 C 107.210938 210.980469 112.882812 209.945312 116.167969 209.351562 C 117.300781 209.148438 118.144531 208.996094 118.472656 208.941406 Z M 118.472656 213.953125 C 118.144531 214.011719 117.300781 214.164062 116.167969 214.367188 C 112.882812 214.960938 107.210938 215.996094 105.035156 216.480469 L 105.035156 214.71875 C 107.210938 214.238281 112.882812 213.203125 116.167969 212.605469 C 117.300781 212.40625 118.144531 212.253906 118.472656 212.195312 Z M 118.851562 187.914062 L 118.828125 187.917969 L 116.167969 188.429688 L 104.390625 190.695312 L 104.390625 221.5 C 104.605469 221.433594 104.820312 221.359375 105.035156 221.285156 L 105.035156 221.230469 C 105.152344 221.207031 105.285156 221.175781 105.425781 221.148438 C 107.757812 220.328125 110 219.394531 112.121094 218.359375 C 109.359375 218.871094 106.453125 219.421875 105.035156 219.734375 L 105.035156 217.976562 C 107.210938 217.492188 112.882812 216.457031 116.167969 215.867188 C 116.433594 215.816406 116.683594 215.773438 116.914062 215.730469 C 119.816406 213.941406 122.394531 211.953125 124.546875 209.824219 L 124.546875 191.722656 L 118.851562 187.914062 " fill-opacity="1" fill-rule="nonzero"/><path fill="#ff914d" d="M 80.597656 175.046875 L 77.300781 176.535156 L 77.300781 173.445312 L 80.597656 171.957031 Z M 80.597656 179.625 L 77.300781 181.109375 L 77.300781 178.019531 L 80.597656 176.535156 Z M 80.597656 184.199219 L 77.300781 185.6875 L 77.300781 182.597656 L 80.597656 181.109375 Z M 80.597656 188.773438 L 77.300781 190.261719 L 77.300781 187.171875 L 80.597656 185.6875 Z M 80.597656 193.351562 L 77.300781 194.835938 L 77.300781 191.75 L 80.597656 190.261719 Z M 80.597656 197.929688 L 77.300781 199.414062 L 77.300781 196.324219 L 80.597656 194.835938 Z M 80.597656 202.503906 L 77.300781 203.988281 L 77.300781 200.902344 L 80.597656 199.414062 Z M 80.597656 207.078125 L 77.300781 208.566406 L 77.300781 205.476562 L 80.597656 203.988281 Z M 80.597656 211.65625 L 77.300781 213.140625 L 77.300781 210.050781 L 80.597656 208.566406 Z M 80.597656 216.230469 L 77.300781 217.71875 L 77.300781 214.628906 L 80.597656 213.140625 Z M 80.597656 220.808594 L 77.300781 222.292969 L 77.300781 219.203125 L 80.597656 217.71875 Z M 76.582031 176.855469 L 73.660156 178.175781 L 73.660156 175.085938 L 76.582031 173.769531 Z M 76.582031 181.433594 L 73.660156 182.75 L 73.660156 179.660156 L 76.582031 178.34375 Z M 76.582031 186.007812 L 73.660156 187.328125 L 73.660156 184.238281 L 76.582031 182.921875 Z M 76.582031 190.585938 L 73.660156 191.902344 L 73.660156 188.8125 L 76.582031 187.496094 Z M 76.582031 195.160156 L 73.660156 196.480469 L 73.660156 193.386719 L 76.582031 192.074219 Z M 76.582031 199.738281 L 73.660156 201.054688 L 73.660156 197.964844 L 76.582031 196.648438 Z M 76.582031 204.3125 L 73.660156 205.632812 L 73.660156 202.542969 L 76.582031 201.226562 Z M 76.582031 208.890625 L 73.660156 210.207031 L 73.660156 207.117188 L 76.582031 205.800781 Z M 76.582031 213.464844 L 73.660156 214.78125 L 73.660156 211.691406 L 76.582031 210.378906 Z M 76.582031 218.042969 L 73.660156 219.359375 L 73.660156 216.269531 L 76.582031 214.953125 Z M 72.941406 178.5 L 69.644531 179.984375 L 69.644531 176.894531 L 72.941406 175.410156 Z M 72.941406 183.074219 L 69.644531 184.5625 L 69.644531 181.472656 L 72.941406 179.984375 Z M 72.941406 187.652344 L 69.644531 189.136719 L 69.644531 186.050781 L 72.941406 184.5625 Z M 72.941406 192.226562 L 69.644531 193.714844 L 69.644531 190.625 L 72.941406 189.136719 Z M 72.941406 196.804688 L 69.644531 198.289062 L 69.644531 195.199219 L 72.941406 193.714844 Z M 72.941406 201.378906 L 69.644531 202.863281 L 69.644531 199.777344 L 72.941406 198.289062 Z M 72.941406 205.953125 L 69.644531 207.441406 L 69.644531 204.351562 L 72.941406 202.863281 Z M 72.941406 210.53125 L 69.644531 212.015625 L 69.644531 208.929688 L 72.941406 207.441406 Z M 72.941406 215.105469 L 69.644531 216.59375 L 69.644531 213.503906 L 72.941406 212.015625 Z M 72.941406 219.683594 L 69.644531 221.167969 L 69.644531 218.082031 L 72.941406 216.59375 Z M 85.199219 172.832031 L 81.34375 170.179688 L 69.074219 175.710938 L 69.074219 220.84375 C 69.691406 221.257812 70.367188 221.644531 71.09375 222 L 72.941406 221.167969 L 72.941406 222.796875 C 73.175781 222.886719 73.417969 222.972656 73.660156 223.054688 L 73.660156 220.84375 L 76.582031 219.527344 L 76.582031 222.617188 L 74.808594 223.417969 C 75.605469 223.648438 76.4375 223.855469 77.300781 224.027344 L 77.300781 223.78125 L 80.597656 222.292969 L 80.597656 224.527344 C 82.109375 224.691406 83.691406 224.769531 85.328125 224.769531 C 87.167969 224.769531 89.066406 224.667969 90.992188 224.457031 L 90.992188 176.816406 L 85.199219 172.832031 " fill-opacity="1" fill-rule="nonzero"/><g clip-path="url(#id2)"><path fill="#ff5c00" d="M 124.546875 219.75 C 122.675781 221.042969 120.644531 222.28125 118.472656 223.433594 C 118.195312 223.582031 117.917969 223.726562 117.640625 223.871094 C 115.941406 224.742188 114.164062 225.566406 112.3125 226.335938 C 110.015625 227.285156 107.609375 228.148438 105.109375 228.902344 C 105.085938 228.910156 105.058594 228.917969 105.035156 228.925781 C 104.820312 228.988281 104.605469 229.054688 104.390625 229.113281 C 104 229.230469 103.613281 229.339844 103.222656 229.445312 C 99.453125 230.484375 95.734375 231.199219 92.160156 231.617188 C 91.769531 231.664062 91.378906 231.703125 90.992188 231.742188 C 88.910156 231.945312 86.878906 232.046875 84.914062 232.046875 C 81.964844 232.046875 79.167969 231.820312 76.582031 231.375 C 75.574219 231.203125 74.601562 230.996094 73.660156 230.757812 C 73.417969 230.695312 73.179688 230.632812 72.941406 230.566406 L 72.941406 230.320312 L 72.609375 230.472656 C 71.949219 230.28125 71.308594 230.078125 70.6875 229.851562 C 70.332031 229.722656 69.984375 229.589844 69.644531 229.453125 C 69.453125 229.375 69.261719 229.292969 69.074219 229.210938 C 64.445312 227.199219 61.207031 224.152344 60.023438 220.203125 C 58.382812 214.746094 60.960938 208.558594 66.492188 202.886719 C 63.171875 207.214844 61.804688 211.742188 63.03125 215.824219 C 63.910156 218.757812 66.035156 221.140625 69.074219 222.90625 C 69.261719 223.015625 69.449219 223.121094 69.644531 223.222656 C 70.515625 223.691406 71.449219 224.109375 72.449219 224.480469 C 73.0625 224.710938 73.699219 224.917969 74.355469 225.109375 C 75.074219 225.316406 75.816406 225.503906 76.582031 225.664062 C 76.820312 225.714844 77.058594 225.761719 77.300781 225.808594 C 77.863281 225.917969 78.4375 226.011719 79.019531 226.09375 C 81.007812 226.378906 83.121094 226.523438 85.328125 226.523438 C 87.15625 226.523438 89.050781 226.421875 90.992188 226.222656 C 91.378906 226.179688 91.769531 226.136719 92.160156 226.089844 C 95.679688 225.652344 99.339844 224.886719 103.042969 223.769531 C 103.105469 223.75 103.164062 223.730469 103.222656 223.714844 C 103.613281 223.59375 104.003906 223.472656 104.390625 223.34375 C 104.964844 223.160156 105.535156 222.964844 106.09375 222.765625 C 108.726562 221.835938 111.222656 220.769531 113.550781 219.597656 C 114.953125 218.890625 116.292969 218.148438 117.566406 217.371094 C 117.871094 217.1875 118.175781 216.996094 118.472656 216.808594 C 120.734375 215.371094 122.773438 213.832031 124.546875 212.226562 C 130.660156 206.710938 133.671875 200.449219 132.03125 194.980469 C 130.519531 189.953125 125.351562 186.542969 118.203125 185.085938 C 128.390625 186.09375 135.953125 190.148438 137.914062 196.675781 C 140.128906 204.0625 134.628906 212.78125 124.546875 219.75 " fill-opacity="1" fill-rule="nonzero"/></g><path fill="#ff5c00" d="M 72.941406 230.320312 L 72.941406 230.566406 C 72.828125 230.535156 72.71875 230.503906 72.609375 230.472656 L 72.941406 230.320312 " fill-opacity="1" fill-rule="nonzero"/><g fill="#000000" fill-opacity="1"><g transform="translate(148.417744, 179.417486)"><g><path d="M 2.703125 -23.609375 C 4.335938 -23.816406 6.015625 -23.921875 7.734375 -23.921875 C 10.929688 -23.921875 13.363281 -23.171875 15.03125 -21.671875 C 16.695312 -20.171875 17.53125 -17.925781 17.53125 -14.9375 C 17.53125 -12.257812 16.617188 -10.144531 14.796875 -8.59375 C 13.085938 -7.132812 10.890625 -6.40625 8.203125 -6.40625 C 7.898438 -6.40625 7.566406 -6.425781 7.203125 -6.46875 L 7.203125 0 L 2.703125 0 Z M 8.265625 -19.671875 C 7.910156 -19.671875 7.554688 -19.65625 7.203125 -19.625 L 7.203125 -10.34375 C 7.578125 -10.300781 8.035156 -10.28125 8.578125 -10.28125 C 9.117188 -10.28125 9.679688 -10.394531 10.265625 -10.625 C 10.859375 -10.851562 11.359375 -11.171875 11.765625 -11.578125 C 12.597656 -12.441406 13.015625 -13.570312 13.015625 -14.96875 C 13.015625 -18.101562 11.429688 -19.671875 8.265625 -19.671875 Z M 8.265625 -19.671875 "/></g></g></g><g fill="#000000" fill-opacity="1"><g transform="translate(170.898997, 179.417486)"><g><path d="M 10.625 -9.125 C 10.269531 -9.101562 9.890625 -9.09375 9.484375 -9.09375 C 9.085938 -9.09375 8.5 -9.125 7.71875 -9.1875 L 7.71875 0 L 3.03125 0 L 3.03125 -23.609375 C 4.6875 -23.816406 6.710938 -23.921875 9.109375 -23.921875 C 12.378906 -23.921875 14.816406 -23.316406 16.421875 -22.109375 C 18.035156 -20.898438 18.84375 -19.039062 18.84375 -16.53125 C 18.84375 -14.570312 18.101562 -12.898438 16.625 -11.515625 C 16.144531 -11.066406 15.59375 -10.675781 14.96875 -10.34375 L 18.578125 -2.75 C 19.273438 -1.1875 19.816406 -0.257812 20.203125 0.03125 L 20.109375 0.125 C 18.960938 -0.0625 17.164062 -0.0546875 14.71875 0.140625 Z M 9.4375 -19.75 C 8.84375 -19.75 8.269531 -19.722656 7.71875 -19.671875 L 7.71875 -12.921875 C 8.289062 -12.835938 8.960938 -12.796875 9.734375 -12.796875 C 10.515625 -12.796875 11.171875 -12.863281 11.703125 -13 C 12.234375 -13.132812 12.691406 -13.34375 13.078125 -13.625 C 13.910156 -14.25 14.328125 -15.1875 14.328125 -16.4375 C 14.328125 -17.6875 13.894531 -18.5625 13.03125 -19.0625 C 12.21875 -19.519531 11.019531 -19.75 9.4375 -19.75 Z M 9.4375 -19.75 "/></g></g></g><g fill="#000000" fill-opacity="1"><g transform="translate(196.327424, 179.417486)"><g><path d="M 4.953125 -2.78125 C 3.890625 -3.8125 3.046875 -5.046875 2.421875 -6.484375 C 1.804688 -7.921875 1.5 -9.492188 1.5 -11.203125 C 1.5 -12.910156 1.785156 -14.53125 2.359375 -16.0625 C 2.941406 -17.59375 3.765625 -18.941406 4.828125 -20.109375 C 5.898438 -21.273438 7.195312 -22.203125 8.71875 -22.890625 C 10.238281 -23.578125 11.941406 -23.921875 13.828125 -23.921875 C 17.078125 -23.921875 19.8125 -22.894531 22.03125 -20.84375 C 24.40625 -18.65625 25.59375 -15.703125 25.59375 -11.984375 C 25.59375 -8.378906 24.367188 -5.382812 21.921875 -3 C 20.421875 -1.53125 18.628906 -0.519531 16.546875 0.03125 C 15.515625 0.300781 14.3125 0.4375 12.9375 0.4375 C 11.570312 0.4375 10.164062 0.15625 8.71875 -0.40625 C 7.28125 -0.96875 6.023438 -1.757812 4.953125 -2.78125 Z M 6.40625 -11.4375 C 6.40625 -10.34375 6.585938 -9.335938 6.953125 -8.421875 C 7.316406 -7.503906 7.820312 -6.71875 8.46875 -6.0625 C 9.851562 -4.664062 11.625 -3.96875 13.78125 -3.96875 C 15.84375 -3.96875 17.5 -4.632812 18.75 -5.96875 C 20.019531 -7.34375 20.65625 -9.21875 20.65625 -11.59375 C 20.65625 -13.832031 20.050781 -15.703125 18.84375 -17.203125 C 17.53125 -18.796875 15.738281 -19.59375 13.46875 -19.59375 C 11.269531 -19.59375 9.523438 -18.78125 8.234375 -17.15625 C 7.015625 -15.632812 6.40625 -13.726562 6.40625 -11.4375 Z M 6.40625 -11.4375 "/></g></g></g><g fill="#000000" fill-opacity="1"><g transform="translate(227.791369, 179.417486)"><g><path d="M 2.703125 -23.609375 C 4.335938 -23.816406 6.015625 -23.921875 7.734375 -23.921875 C 10.929688 -23.921875 13.363281 -23.171875 15.03125 -21.671875 C 16.695312 -20.171875 17.53125 -17.925781 17.53125 -14.9375 C 17.53125 -12.257812 16.617188 -10.144531 14.796875 -8.59375 C 13.085938 -7.132812 10.890625 -6.40625 8.203125 -6.40625 C 7.898438 -6.40625 7.566406 -6.425781 7.203125 -6.46875 L 7.203125 0 L 2.703125 0 Z M 8.265625 -19.671875 C 7.910156 -19.671875 7.554688 -19.65625 7.203125 -19.625 L 7.203125 -10.34375 C 7.578125 -10.300781 8.035156 -10.28125 8.578125 -10.28125 C 9.117188 -10.28125 9.679688 -10.394531 10.265625 -10.625 C 10.859375 -10.851562 11.359375 -11.171875 11.765625 -11.578125 C 12.597656 -12.441406 13.015625 -13.570312 13.015625 -14.96875 C 13.015625 -18.101562 11.429688 -19.671875 8.265625 -19.671875 Z M 8.265625 -19.671875 "/></g></g></g><g fill="#000000" fill-opacity="1"><g transform="translate(250.272621, 179.417486)"><g><path d="M 14.84375 -4.234375 C 15.570312 -4.234375 16.078125 -4.304688 16.359375 -4.453125 L 16.4375 -4.4375 L 16.265625 0 L 3.03125 0 L 3.03125 -23.609375 C 3.351562 -23.578125 3.707031 -23.554688 4.09375 -23.546875 L 5.328125 -23.515625 C 6.148438 -23.492188 7.046875 -23.484375 8.015625 -23.484375 C 10.710938 -23.484375 13.378906 -23.53125 16.015625 -23.625 C 15.878906 -22.582031 15.8125 -21.195312 15.8125 -19.46875 C 15.8125 -19.28125 15.828125 -19.140625 15.859375 -19.046875 L 15.8125 -19 C 15.207031 -19.175781 14.335938 -19.265625 13.203125 -19.265625 L 7.640625 -19.265625 L 7.640625 -14.765625 L 11.828125 -14.765625 C 13.117188 -14.765625 13.894531 -14.796875 14.15625 -14.859375 L 14.21875 -10.5 C 13.644531 -10.5625 12.910156 -10.59375 12.015625 -10.59375 L 7.640625 -10.59375 L 7.640625 -4.234375 Z M 14.84375 -4.234375 "/></g></g></g><g fill="#000000" fill-opacity="1"><g transform="translate(272.753874, 179.417486)"><g><path d="M 10.625 -9.125 C 10.269531 -9.101562 9.890625 -9.09375 9.484375 -9.09375 C 9.085938 -9.09375 8.5 -9.125 7.71875 -9.1875 L 7.71875 0 L 3.03125 0 L 3.03125 -23.609375 C 4.6875 -23.816406 6.710938 -23.921875 9.109375 -23.921875 C 12.378906 -23.921875 14.816406 -23.316406 16.421875 -22.109375 C 18.035156 -20.898438 18.84375 -19.039062 18.84375 -16.53125 C 18.84375 -14.570312 18.101562 -12.898438 16.625 -11.515625 C 16.144531 -11.066406 15.59375 -10.675781 14.96875 -10.34375 L 18.578125 -2.75 C 19.273438 -1.1875 19.816406 -0.257812 20.203125 0.03125 L 20.109375 0.125 C 18.960938 -0.0625 17.164062 -0.0546875 14.71875 0.140625 Z M 9.4375 -19.75 C 8.84375 -19.75 8.269531 -19.722656 7.71875 -19.671875 L 7.71875 -12.921875 C 8.289062 -12.835938 8.960938 -12.796875 9.734375 -12.796875 C 10.515625 -12.796875 11.171875 -12.863281 11.703125 -13 C 12.234375 -13.132812 12.691406 -13.34375 13.078125 -13.625 C 13.910156 -14.25 14.328125 -15.1875 14.328125 -16.4375 C 14.328125 -17.6875 13.894531 -18.5625 13.03125 -19.0625 C 12.21875 -19.519531 11.019531 -19.75 9.4375 -19.75 Z M 9.4375 -19.75 "/></g></g></g><g fill="#000000" fill-opacity="1"><g transform="translate(298.182301, 179.417486)"><g><path d="M 11.515625 0.109375 C 10.941406 0.0351562 9.488281 0 7.15625 0 L 6.578125 0 L 6.578125 -19.53125 L 3.09375 -19.53125 C 2.050781 -19.53125 1.4375 -19.472656 1.25 -19.359375 C 1.0625 -19.253906 0.914062 -19.160156 0.8125 -19.078125 L 0.765625 -19.109375 L 0.765625 -23.625 L 0.8125 -23.671875 C 1.195312 -23.546875 2.242188 -23.484375 3.953125 -23.484375 L 15.03125 -23.484375 C 16.0625 -23.484375 16.671875 -23.535156 16.859375 -23.640625 C 17.046875 -23.742188 17.191406 -23.835938 17.296875 -23.921875 L 17.359375 -23.90625 L 17.359375 -19.390625 L 17.296875 -19.328125 C 16.910156 -19.460938 15.863281 -19.53125 14.15625 -19.53125 L 11.515625 -19.53125 Z M 11.515625 0.109375 "/></g></g></g><g fill="#000000" fill-opacity="1"><g transform="translate(320.663554, 179.417486)"><g><path d="M 7.96875 0 C 8.113281 -0.457031 8.1875 -1.53125 8.1875 -3.21875 L 8.1875 -8.125 C 6.15625 -12.601562 4.851562 -15.398438 4.28125 -16.515625 C 3.71875 -17.628906 3.242188 -18.507812 2.859375 -19.15625 C 1.640625 -21.226562 0.898438 -22.414062 0.640625 -22.71875 C 0.390625 -23.03125 0.132812 -23.285156 -0.125 -23.484375 L 5.96875 -23.484375 C 6.09375 -23.242188 6.269531 -22.894531 6.5 -22.4375 L 10.765625 -13.421875 C 10.960938 -13.910156 11.195312 -14.460938 11.46875 -15.078125 C 14.039062 -20.597656 15.34375 -23.398438 15.375 -23.484375 L 21.203125 -23.484375 C 20.597656 -22.992188 19.863281 -21.976562 19 -20.4375 C 18.726562 -19.976562 18.457031 -19.457031 18.1875 -18.875 L 14.1875 -10.5625 C 13.738281 -9.5625 13.359375 -8.660156 13.046875 -7.859375 L 13.046875 -2.796875 C 13.046875 -1.617188 13.117188 -0.6875 13.265625 0 Z M 7.96875 0 "/></g></g></g><g fill="#000000" fill-opacity="1"><g transform="translate(148.417744, 220.472404)"><g><path d="M 17.21875 -22.171875 L 16.875 -16.984375 L 16.75 -16.953125 C 15.882812 -18.253906 14.40625 -19.097656 12.3125 -19.484375 C 11.644531 -19.617188 11.007812 -19.6875 10.40625 -19.6875 C 9.800781 -19.6875 9.28125 -19.628906 8.84375 -19.515625 C 8.414062 -19.410156 8.050781 -19.257812 7.75 -19.0625 C 7.101562 -18.644531 6.78125 -18.09375 6.78125 -17.40625 C 6.78125 -16.507812 7.0625 -15.835938 7.625 -15.390625 C 8.332031 -14.847656 9.503906 -14.46875 11.140625 -14.25 C 12.773438 -14.03125 14.085938 -13.734375 15.078125 -13.359375 C 16.066406 -12.984375 16.878906 -12.507812 17.515625 -11.9375 C 18.710938 -10.851562 19.3125 -9.320312 19.3125 -7.34375 C 19.3125 -4.75 18.335938 -2.753906 16.390625 -1.359375 C 14.710938 -0.160156 12.601562 0.4375 10.0625 0.4375 C 8.007812 0.4375 5.984375 0.0507812 3.984375 -0.71875 C 3.328125 -0.976562 2.753906 -1.28125 2.265625 -1.625 L 2.453125 -7.515625 L 2.53125 -7.578125 C 3.988281 -5.054688 6.378906 -3.796875 9.703125 -3.796875 C 12.078125 -3.796875 13.644531 -4.367188 14.40625 -5.515625 C 14.664062 -5.898438 14.796875 -6.328125 14.796875 -6.796875 C 14.796875 -7.273438 14.71875 -7.671875 14.5625 -7.984375 C 14.40625 -8.296875 14.15625 -8.566406 13.8125 -8.796875 C 13.125 -9.242188 11.972656 -9.539062 10.359375 -9.6875 C 8.742188 -9.84375 7.425781 -10.128906 6.40625 -10.546875 C 5.382812 -10.972656 4.566406 -11.5 3.953125 -12.125 C 2.847656 -13.257812 2.296875 -14.835938 2.296875 -16.859375 C 2.296875 -18.953125 3.03125 -20.644531 4.5 -21.9375 C 6 -23.257812 8.015625 -23.921875 10.546875 -23.921875 C 13.085938 -23.921875 15.3125 -23.335938 17.21875 -22.171875 Z M 17.21875 -22.171875 "/></g></g></g><g fill="#000000" fill-opacity="1"><g transform="translate(173.846172, 220.472404)"><g><path d="M 14.84375 -4.234375 C 15.570312 -4.234375 16.078125 -4.304688 16.359375 -4.453125 L 16.4375 -4.4375 L 16.265625 0 L 3.03125 0 L 3.03125 -23.609375 C 3.351562 -23.578125 3.707031 -23.554688 4.09375 -23.546875 L 5.328125 -23.515625 C 6.148438 -23.492188 7.046875 -23.484375 8.015625 -23.484375 C 10.710938 -23.484375 13.378906 -23.53125 16.015625 -23.625 C 15.878906 -22.582031 15.8125 -21.195312 15.8125 -19.46875 C 15.8125 -19.28125 15.828125 -19.140625 15.859375 -19.046875 L 15.8125 -19 C 15.207031 -19.175781 14.335938 -19.265625 13.203125 -19.265625 L 7.640625 -19.265625 L 7.640625 -14.765625 L 11.828125 -14.765625 C 13.117188 -14.765625 13.894531 -14.796875 14.15625 -14.859375 L 14.21875 -10.5 C 13.644531 -10.5625 12.910156 -10.59375 12.015625 -10.59375 L 7.640625 -10.59375 L 7.640625 -4.234375 Z M 14.84375 -4.234375 "/></g></g></g><g fill="#000000" fill-opacity="1"><g transform="translate(196.327424, 220.472404)"><g><path d="M 14.84375 -4.234375 C 15.570312 -4.234375 16.078125 -4.304688 16.359375 -4.453125 L 16.4375 -4.4375 L 16.265625 0 L 3.03125 0 L 3.03125 -23.609375 C 3.351562 -23.578125 3.707031 -23.554688 4.09375 -23.546875 L 5.328125 -23.515625 C 6.148438 -23.492188 7.046875 -23.484375 8.015625 -23.484375 C 10.710938 -23.484375 13.378906 -23.53125 16.015625 -23.625 C 15.878906 -22.582031 15.8125 -21.195312 15.8125 -19.46875 C 15.8125 -19.28125 15.828125 -19.140625 15.859375 -19.046875 L 15.8125 -19 C 15.207031 -19.175781 14.335938 -19.265625 13.203125 -19.265625 L 7.640625 -19.265625 L 7.640625 -14.765625 L 11.828125 -14.765625 C 13.117188 -14.765625 13.894531 -14.796875 14.15625 -14.859375 L 14.21875 -10.5 C 13.644531 -10.5625 12.910156 -10.59375 12.015625 -10.59375 L 7.640625 -10.59375 L 7.640625 -4.234375 Z M 14.84375 -4.234375 "/></g></g></g><g fill="#000000" fill-opacity="1"><g transform="translate(218.808677, 220.472404)"><g><path d="M 7.53125 0.109375 C 6.71875 0.0351562 5.6875 0 4.4375 0 L 3.03125 0 L 3.03125 -23.546875 L 3.75 -23.515625 C 4.238281 -23.492188 4.609375 -23.484375 4.859375 -23.484375 L 5.359375 -23.484375 C 6.398438 -23.484375 7.125 -23.53125 7.53125 -23.625 L 7.53125 -13.640625 L 14.6875 -23.546875 C 15.4375 -23.503906 16.070312 -23.484375 16.59375 -23.484375 L 17.5625 -23.484375 C 18.78125 -23.484375 19.644531 -23.53125 20.15625 -23.625 L 13.34375 -14.71875 L 20.0625 -1.40625 C 20.34375 -0.757812 20.601562 -0.289062 20.84375 0 L 19.765625 0 C 17.285156 0 15.738281 0.046875 15.125 0.140625 C 15 -0.648438 14.820312 -1.335938 14.59375 -1.921875 L 10.09375 -10.5 L 7.53125 -7.15625 Z M 7.53125 0.109375 "/></g></g></g><g fill="#000000" fill-opacity="1"><g transform="translate(244.237104, 220.472404)"><g><path d="M 14.84375 -4.234375 C 15.570312 -4.234375 16.078125 -4.304688 16.359375 -4.453125 L 16.4375 -4.4375 L 16.265625 0 L 3.03125 0 L 3.03125 -23.609375 C 3.351562 -23.578125 3.707031 -23.554688 4.09375 -23.546875 L 5.328125 -23.515625 C 6.148438 -23.492188 7.046875 -23.484375 8.015625 -23.484375 C 10.710938 -23.484375 13.378906 -23.53125 16.015625 -23.625 C 15.878906 -22.582031 15.8125 -21.195312 15.8125 -19.46875 C 15.8125 -19.28125 15.828125 -19.140625 15.859375 -19.046875 L 15.8125 -19 C 15.207031 -19.175781 14.335938 -19.265625 13.203125 -19.265625 L 7.640625 -19.265625 L 7.640625 -14.765625 L 11.828125 -14.765625 C 13.117188 -14.765625 13.894531 -14.796875 14.15625 -14.859375 L 14.21875 -10.5 C 13.644531 -10.5625 12.910156 -10.59375 12.015625 -10.59375 L 7.640625 -10.59375 L 7.640625 -4.234375 Z M 14.84375 -4.234375 "/></g></g></g><g fill="#000000" fill-opacity="1"><g transform="translate(266.718357, 220.472404)"><g><path d="M 10.625 -9.125 C 10.269531 -9.101562 9.890625 -9.09375 9.484375 -9.09375 C 9.085938 -9.09375 8.5 -9.125 7.71875 -9.1875 L 7.71875 0 L 3.03125 0 L 3.03125 -23.609375 C 4.6875 -23.816406 6.710938 -23.921875 9.109375 -23.921875 C 12.378906 -23.921875 14.816406 -23.316406 16.421875 -22.109375 C 18.035156 -20.898438 18.84375 -19.039062 18.84375 -16.53125 C 18.84375 -14.570312 18.101562 -12.898438 16.625 -11.515625 C 16.144531 -11.066406 15.59375 -10.675781 14.96875 -10.34375 L 18.578125 -2.75 C 19.273438 -1.1875 19.816406 -0.257812 20.203125 0.03125 L 20.109375 0.125 C 18.960938 -0.0625 17.164062 -0.0546875 14.71875 0.140625 Z M 9.4375 -19.75 C 8.84375 -19.75 8.269531 -19.722656 7.71875 -19.671875 L 7.71875 -12.921875 C 8.289062 -12.835938 8.960938 -12.796875 9.734375 -12.796875 C 10.515625 -12.796875 11.171875 -12.863281 11.703125 -13 C 12.234375 -13.132812 12.691406 -13.34375 13.078125 -13.625 C 13.910156 -14.25 14.328125 -15.1875 14.328125 -16.4375 C 14.328125 -17.6875 13.894531 -18.5625 13.03125 -19.0625 C 12.21875 -19.519531 11.019531 -19.75 9.4375 -19.75 Z M 9.4375 -19.75 "/></g></g></g><g fill="#000000" fill-opacity="1"><g transform="translate(292.146784, 220.472404)"><g><path d="M 17.21875 -22.171875 L 16.875 -16.984375 L 16.75 -16.953125 C 15.882812 -18.253906 14.40625 -19.097656 12.3125 -19.484375 C 11.644531 -19.617188 11.007812 -19.6875 10.40625 -19.6875 C 9.800781 -19.6875 9.28125 -19.628906 8.84375 -19.515625 C 8.414062 -19.410156 8.050781 -19.257812 7.75 -19.0625 C 7.101562 -18.644531 6.78125 -18.09375 6.78125 -17.40625 C 6.78125 -16.507812 7.0625 -15.835938 7.625 -15.390625 C 8.332031 -14.847656 9.503906 -14.46875 11.140625 -14.25 C 12.773438 -14.03125 14.085938 -13.734375 15.078125 -13.359375 C 16.066406 -12.984375 16.878906 -12.507812 17.515625 -11.9375 C 18.710938 -10.851562 19.3125 -9.320312 19.3125 -7.34375 C 19.3125 -4.75 18.335938 -2.753906 16.390625 -1.359375 C 14.710938 -0.160156 12.601562 0.4375 10.0625 0.4375 C 8.007812 0.4375 5.984375 0.0507812 3.984375 -0.71875 C 3.328125 -0.976562 2.753906 -1.28125 2.265625 -1.625 L 2.453125 -7.515625 L 2.53125 -7.578125 C 3.988281 -5.054688 6.378906 -3.796875 9.703125 -3.796875 C 12.078125 -3.796875 13.644531 -4.367188 14.40625 -5.515625 C 14.664062 -5.898438 14.796875 -6.328125 14.796875 -6.796875 C 14.796875 -7.273438 14.71875 -7.671875 14.5625 -7.984375 C 14.40625 -8.296875 14.15625 -8.566406 13.8125 -8.796875 C 13.125 -9.242188 11.972656 -9.539062 10.359375 -9.6875 C 8.742188 -9.84375 7.425781 -10.128906 6.40625 -10.546875 C 5.382812 -10.972656 4.566406 -11.5 3.953125 -12.125 C 2.847656 -13.257812 2.296875 -14.835938 2.296875 -16.859375 C 2.296875 -18.953125 3.03125 -20.644531 4.5 -21.9375 C 6 -23.257812 8.015625 -23.921875 10.546875 -23.921875 C 13.085938 -23.921875 15.3125 -23.335938 17.21875 -22.171875 Z M 17.21875 -22.171875 "/></g></g></g></svg>