<svg xmlns="http://www.w3.org/2000/svg" xmlns:xlink="http://www.w3.org/1999/xlink" width="1280" zoomAndPan="magnify" viewBox="0 0 960 540.000001" height="720" preserveAspectRatio="xMidYMid meet" version="1.0"><defs><g/><clipPath id="id1"><path d="M 177 98.453125 L 229 98.453125 L 229 411 L 177 411 Z M 177 98.453125 " clip-rule="nonzero"/></clipPath><clipPath id="id2"><path d="M 59 260 L 363 260 L 363 440.570312 L 59 440.570312 Z M 59 260 " clip-rule="nonzero"/></clipPath></defs><path fill="#000000" d="M 180.203125 228.773438 L 157.921875 213.5 Z M 180.203125 228.773438 " fill-opacity="1" fill-rule="nonzero"/><path fill="#ff5c00" d="M 157.921875 134.441406 L 170.960938 125.503906 L 170.960938 216.988281 L 157.921875 208.050781 L 157.921875 134.441406 " fill-opacity="1" fill-rule="nonzero"/><g clip-path="url(#id1)"><path fill="#ff5c00" d="M 228.148438 106.488281 L 228.148438 278.585938 L 227.234375 278.757812 L 227.234375 401.527344 C 226.367188 401.796875 225.492188 402.066406 224.613281 402.332031 C 211.339844 406.328125 197.855469 409.203125 184.695312 410.878906 L 184.695312 226.410156 L 182.746094 225.066406 L 177.011719 221.132812 L 178.125 221.132812 L 178.125 120.59375 L 197.8125 107.097656 L 197.8125 178.722656 L 201.746094 178.722656 L 201.746094 104.402344 L 210.359375 98.496094 L 228.148438 106.488281 " fill-opacity="1" fill-rule="nonzero"/></g><path fill="#ff5c00" d="M 277.03125 128.449219 L 277.03125 269.203125 L 235.316406 277.210938 L 235.316406 109.710938 L 246.6875 114.824219 L 246.6875 155.136719 L 250.625 155.136719 L 250.625 116.585938 L 268.53125 124.632812 L 268.53125 206.671875 L 272.460938 206.671875 L 272.460938 126.402344 L 277.03125 128.449219 " fill-opacity="1" fill-rule="nonzero"/><path fill="#ff914d" d="M 285.890625 283.769531 C 284.636719 283.988281 281.378906 284.570312 277.027344 285.355469 C 264.394531 287.621094 242.582031 291.59375 234.207031 293.445312 L 234.207031 286.707031 C 242.582031 284.855469 264.394531 280.886719 277.027344 278.613281 C 281.378906 277.832031 284.636719 277.246094 285.890625 277.027344 Z M 285.890625 296.25 C 284.636719 296.46875 281.378906 297.046875 277.027344 297.832031 C 264.394531 300.101562 242.582031 304.078125 234.207031 305.925781 L 234.207031 299.183594 C 242.582031 297.339844 264.394531 293.363281 277.027344 291.089844 C 281.378906 290.308594 284.636719 289.726562 285.890625 289.507812 Z M 285.890625 308.726562 C 284.636719 308.949219 281.378906 309.535156 277.027344 310.316406 C 264.394531 312.582031 242.582031 316.5625 234.207031 318.40625 L 234.207031 311.667969 C 242.582031 309.820312 264.394531 305.847656 277.027344 303.574219 C 281.378906 302.792969 284.636719 302.207031 285.890625 301.988281 Z M 285.890625 321.210938 C 284.636719 321.433594 281.378906 322.015625 277.027344 322.792969 C 264.394531 325.070312 242.582031 329.039062 234.207031 330.890625 L 234.207031 324.152344 C 242.582031 322.300781 264.394531 318.328125 277.027344 316.050781 C 281.378906 315.269531 284.636719 314.695312 285.890625 314.46875 Z M 285.890625 333.691406 C 284.636719 333.910156 281.378906 334.496094 277.027344 335.277344 C 264.394531 337.546875 242.582031 341.515625 234.207031 343.367188 L 234.207031 336.632812 C 242.582031 334.777344 264.394531 330.808594 277.027344 328.535156 C 281.378906 327.753906 284.636719 327.171875 285.890625 326.953125 Z M 285.890625 346.171875 C 284.636719 346.398438 281.378906 346.976562 277.027344 347.761719 C 264.394531 350.03125 242.582031 354.003906 234.207031 355.855469 L 234.207031 349.113281 C 242.582031 347.261719 264.394531 343.285156 277.027344 341.019531 C 281.378906 340.238281 284.636719 339.65625 285.890625 339.433594 Z M 285.890625 358.65625 C 284.636719 358.878906 281.378906 359.457031 277.027344 360.238281 C 264.394531 362.511719 242.582031 366.484375 234.207031 368.335938 L 234.207031 361.597656 C 242.582031 359.746094 264.394531 355.773438 277.027344 353.5 C 281.378906 352.714844 284.636719 352.132812 285.890625 351.914062 Z M 285.890625 371.132812 C 284.636719 371.359375 281.378906 371.9375 277.027344 372.722656 C 264.394531 374.992188 242.582031 378.964844 234.207031 380.816406 L 234.207031 374.074219 C 242.582031 372.222656 264.394531 368.253906 277.027344 365.972656 C 281.378906 365.199219 284.636719 364.617188 285.890625 364.394531 Z M 287.351562 271.308594 L 287.261719 271.324219 L 277.027344 273.289062 L 231.730469 281.980469 L 231.730469 400.070312 C 232.558594 399.804688 233.382812 399.519531 234.207031 399.238281 L 234.207031 399.035156 C 234.664062 398.933594 235.167969 398.828125 235.710938 398.710938 C 244.683594 395.574219 253.300781 391.988281 261.457031 388.03125 C 250.835938 389.980469 239.664062 392.089844 234.207031 393.292969 L 234.207031 386.550781 C 242.582031 384.707031 264.394531 380.730469 277.027344 378.464844 C 278.042969 378.28125 279.007812 378.105469 279.894531 377.949219 C 291.0625 371.09375 300.972656 363.46875 309.257812 355.304688 L 309.257812 285.90625 L 287.351562 271.308594 " fill-opacity="1" fill-rule="nonzero"/><path fill="#ff914d" d="M 140.226562 221.984375 L 127.542969 227.683594 L 127.542969 215.84375 L 140.226562 210.144531 Z M 140.226562 239.53125 L 127.542969 245.230469 L 127.542969 233.382812 L 140.226562 227.683594 Z M 140.226562 257.070312 L 127.542969 262.769531 L 127.542969 250.929688 L 140.226562 245.230469 Z M 140.226562 274.613281 L 127.542969 280.3125 L 127.542969 268.46875 L 140.226562 262.769531 Z M 140.226562 292.15625 L 127.542969 297.851562 L 127.542969 286.011719 L 140.226562 280.3125 Z M 140.226562 309.699219 L 127.542969 315.398438 L 127.542969 303.554688 L 140.226562 297.851562 Z M 140.226562 327.238281 L 127.542969 332.9375 L 127.542969 321.097656 L 140.226562 315.398438 Z M 140.226562 344.78125 L 127.542969 350.484375 L 127.542969 338.636719 L 140.226562 332.9375 Z M 140.226562 362.324219 L 127.542969 368.023438 L 127.542969 356.175781 L 140.226562 350.484375 Z M 140.226562 379.867188 L 127.542969 385.570312 L 127.542969 373.722656 L 140.226562 368.023438 Z M 140.226562 397.410156 L 127.542969 403.105469 L 127.542969 391.265625 L 140.226562 385.570312 Z M 124.777344 228.925781 L 113.539062 233.972656 L 113.539062 222.132812 L 124.777344 217.085938 Z M 124.777344 246.46875 L 113.539062 251.515625 L 113.539062 239.675781 L 124.777344 234.625 Z M 124.777344 264.011719 L 113.539062 269.0625 L 113.539062 257.214844 L 124.777344 252.167969 Z M 124.777344 281.554688 L 113.539062 286.597656 L 113.539062 274.761719 L 124.777344 269.707031 Z M 124.777344 299.09375 L 113.539062 304.148438 L 113.539062 292.300781 L 124.777344 287.253906 Z M 124.777344 316.636719 L 113.539062 321.683594 L 113.539062 309.84375 L 124.777344 304.796875 Z M 124.777344 334.179688 L 113.539062 339.230469 L 113.539062 327.386719 L 124.777344 322.339844 Z M 124.777344 351.726562 L 113.539062 356.769531 L 113.539062 344.929688 L 124.777344 339.878906 Z M 124.777344 369.265625 L 113.539062 374.316406 L 113.539062 362.46875 L 124.777344 357.425781 Z M 124.777344 386.8125 L 113.539062 391.855469 L 113.539062 380.011719 L 124.777344 374.964844 Z M 110.773438 235.214844 L 98.09375 240.917969 L 98.09375 229.074219 L 110.773438 223.375 Z M 110.773438 252.765625 L 98.09375 258.460938 L 98.09375 246.617188 L 110.773438 240.917969 Z M 110.773438 270.300781 L 98.09375 276.003906 L 98.09375 264.164062 L 110.773438 258.460938 Z M 110.773438 287.847656 L 98.09375 293.546875 L 98.09375 281.699219 L 110.773438 276.003906 Z M 110.773438 305.386719 L 98.09375 311.085938 L 98.09375 299.242188 L 110.773438 293.546875 Z M 110.773438 322.933594 L 98.09375 328.628906 L 98.09375 316.785156 L 110.773438 311.085938 Z M 110.773438 340.46875 L 98.09375 346.171875 L 98.09375 334.324219 L 110.773438 328.628906 Z M 110.773438 358.015625 L 98.09375 363.710938 L 98.09375 351.867188 L 110.773438 346.171875 Z M 110.773438 375.558594 L 98.09375 381.253906 L 98.09375 369.410156 L 110.773438 363.710938 Z M 110.773438 393.097656 L 98.09375 398.796875 L 98.09375 386.957031 L 110.773438 381.253906 Z M 157.921875 213.5 L 143.089844 203.332031 L 95.90625 224.53125 L 95.90625 397.542969 C 98.277344 399.136719 100.867188 400.625 103.671875 401.988281 L 110.773438 398.796875 L 110.773438 405.039062 C 111.679688 405.378906 112.605469 405.710938 113.539062 406.027344 L 113.539062 397.554688 L 124.777344 392.507812 L 124.777344 404.347656 L 117.953125 407.417969 C 121.019531 408.304688 124.21875 409.085938 127.542969 409.75 L 127.542969 408.808594 L 140.226562 403.105469 L 140.226562 411.667969 C 146.03125 412.292969 152.113281 412.601562 158.414062 412.601562 C 165.492188 412.601562 172.785156 412.203125 180.203125 411.402344 L 180.203125 228.773438 L 157.921875 213.5 " fill-opacity="1" fill-rule="nonzero"/><g clip-path="url(#id2)"><path fill="#ff5c00" d="M 309.257812 393.347656 C 302.050781 398.316406 294.238281 403.054688 285.890625 407.476562 C 284.832031 408.042969 283.761719 408.59375 282.6875 409.148438 C 276.152344 412.496094 269.3125 415.65625 262.195312 418.597656 C 253.359375 422.238281 244.109375 425.546875 234.5 428.4375 C 234.402344 428.464844 234.304688 428.5 234.207031 428.527344 C 233.382812 428.773438 232.550781 429.019531 231.730469 429.257812 C 230.234375 429.691406 228.734375 430.117188 227.234375 430.527344 C 212.738281 434.5 198.441406 437.253906 184.695312 438.839844 C 183.191406 439.023438 181.691406 439.179688 180.203125 439.324219 C 172.1875 440.113281 164.378906 440.496094 156.824219 440.496094 C 145.472656 440.496094 134.714844 439.625 124.777344 437.917969 C 120.902344 437.261719 117.152344 436.46875 113.539062 435.554688 C 112.609375 435.320312 111.6875 435.078125 110.773438 434.824219 L 110.773438 433.878906 L 109.492188 434.457031 C 106.953125 433.734375 104.492188 432.941406 102.101562 432.078125 C 100.738281 431.59375 99.402344 431.078125 98.09375 430.546875 C 97.351562 430.25 96.625 429.941406 95.90625 429.625 C 78.101562 421.917969 65.648438 410.238281 61.082031 395.097656 C 54.78125 374.175781 64.703125 350.453125 85.96875 328.71875 C 73.207031 345.304688 67.941406 362.65625 72.652344 378.304688 C 76.042969 389.550781 84.214844 398.691406 95.90625 405.457031 C 96.621094 405.875 97.347656 406.28125 98.09375 406.675781 C 101.4375 408.464844 105.039062 410.070312 108.878906 411.492188 C 111.234375 412.367188 113.683594 413.171875 116.21875 413.894531 C 118.976562 414.699219 121.828125 415.40625 124.777344 416.027344 C 125.691406 416.222656 126.613281 416.40625 127.542969 416.589844 C 129.703125 416.996094 131.90625 417.359375 134.15625 417.679688 C 141.792969 418.761719 149.921875 419.316406 158.414062 419.316406 C 165.445312 419.316406 172.734375 418.933594 180.203125 418.164062 C 181.691406 418.007812 183.191406 417.839844 184.695312 417.65625 C 198.226562 415.988281 212.308594 413.046875 226.550781 408.757812 C 226.78125 408.691406 227.011719 408.617188 227.234375 408.546875 C 228.746094 408.09375 230.242188 407.621094 231.730469 407.132812 C 233.941406 406.425781 236.128906 405.6875 238.289062 404.921875 C 248.410156 401.351562 258.003906 397.261719 266.964844 392.765625 C 272.351562 390.0625 277.5 387.210938 282.402344 384.238281 C 283.582031 383.527344 284.742188 382.804688 285.890625 382.078125 C 294.59375 376.5625 302.433594 370.664062 309.257812 364.515625 C 332.761719 343.375 344.347656 319.367188 338.035156 298.40625 C 332.226562 279.128906 312.351562 266.050781 284.851562 260.464844 C 324.03125 264.335938 353.125 279.882812 360.664062 304.90625 C 369.191406 333.210938 348.027344 366.636719 309.257812 393.347656 " fill-opacity="1" fill-rule="nonzero"/></g><path fill="#ff5c00" d="M 110.773438 433.878906 L 110.773438 434.824219 C 110.34375 434.703125 109.917969 434.585938 109.492188 434.457031 L 110.773438 433.878906 " fill-opacity="1" fill-rule="nonzero"/><g fill="#000000" fill-opacity="1"><g transform="translate(403.873135, 241.053615)"><g><path d="M 7.046875 -61.625 C 11.316406 -62.1875 15.695312 -62.46875 20.1875 -62.46875 C 28.550781 -62.46875 34.90625 -60.503906 39.25 -56.578125 C 43.601562 -52.660156 45.78125 -46.800781 45.78125 -39 C 45.78125 -32.019531 43.394531 -26.503906 38.625 -22.453125 C 34.164062 -18.640625 28.4375 -16.734375 21.4375 -16.734375 C 20.632812 -16.734375 19.757812 -16.78125 18.8125 -16.875 L 18.8125 0 L 7.046875 0 Z M 21.578125 -51.359375 C 20.648438 -51.359375 19.726562 -51.328125 18.8125 -51.265625 L 18.8125 -27.015625 C 19.789062 -26.890625 20.988281 -26.828125 22.40625 -26.828125 C 23.820312 -26.828125 25.296875 -27.125 26.828125 -27.71875 C 28.367188 -28.320312 29.660156 -29.160156 30.703125 -30.234375 C 32.878906 -32.484375 33.96875 -35.4375 33.96875 -39.09375 C 33.96875 -47.269531 29.835938 -51.359375 21.578125 -51.359375 Z M 21.578125 -51.359375 "/></g></g></g><g fill="#000000" fill-opacity="1"><g transform="translate(462.59298, 241.053615)"><g><path d="M 27.75 -23.828125 C 26.832031 -23.765625 25.847656 -23.734375 24.796875 -23.734375 C 23.753906 -23.734375 22.203125 -23.8125 20.140625 -23.96875 L 20.140625 0 L 7.921875 0 L 7.921875 -61.625 C 12.222656 -62.1875 17.507812 -62.46875 23.78125 -62.46875 C 32.320312 -62.46875 38.691406 -60.890625 42.890625 -57.734375 C 47.085938 -54.585938 49.1875 -49.722656 49.1875 -43.140625 C 49.1875 -38.046875 47.265625 -33.6875 43.421875 -30.0625 C 42.160156 -28.882812 40.71875 -27.867188 39.09375 -27.015625 L 48.5 -7.1875 C 50.34375 -3.101562 51.753906 -0.675781 52.734375 0.09375 L 52.5 0.328125 C 49.519531 -0.171875 44.832031 -0.15625 38.4375 0.375 Z M 24.65625 -51.578125 C 23.09375 -51.578125 21.585938 -51.503906 20.140625 -51.359375 L 20.140625 -33.75 C 21.648438 -33.53125 23.414062 -33.421875 25.4375 -33.421875 C 27.46875 -33.421875 29.175781 -33.597656 30.5625 -33.953125 C 31.945312 -34.304688 33.144531 -34.851562 34.15625 -35.59375 C 36.34375 -37.21875 37.4375 -39.65625 37.4375 -42.90625 C 37.4375 -46.164062 36.296875 -48.457031 34.015625 -49.78125 C 31.898438 -50.976562 28.78125 -51.578125 24.65625 -51.578125 Z M 24.65625 -51.578125 "/></g></g></g><g fill="#000000" fill-opacity="1"><g transform="translate(529.011075, 241.053615)"><g><path d="M 12.953125 -7.28125 C 10.160156 -9.957031 7.957031 -13.171875 6.34375 -16.921875 C 4.726562 -20.671875 3.921875 -24.78125 3.921875 -29.25 C 3.921875 -33.71875 4.671875 -37.945312 6.171875 -41.9375 C 7.679688 -45.9375 9.832031 -49.457031 12.625 -52.5 C 15.425781 -55.539062 18.804688 -57.960938 22.765625 -59.765625 C 26.734375 -61.566406 31.175781 -62.46875 36.09375 -62.46875 C 44.570312 -62.46875 51.71875 -59.789062 57.53125 -54.4375 C 63.738281 -48.71875 66.84375 -41.003906 66.84375 -31.296875 C 66.84375 -21.890625 63.644531 -14.070312 57.25 -7.84375 C 53.320312 -4 48.632812 -1.351562 43.1875 0.09375 C 40.519531 0.800781 37.394531 1.15625 33.8125 1.15625 C 30.226562 1.15625 26.550781 0.421875 22.78125 -1.046875 C 19.019531 -2.523438 15.742188 -4.601562 12.953125 -7.28125 Z M 16.734375 -29.875 C 16.734375 -27.007812 17.207031 -24.378906 18.15625 -21.984375 C 19.113281 -19.585938 20.4375 -17.53125 22.125 -15.8125 C 25.71875 -12.1875 30.34375 -10.375 36 -10.375 C 41.375 -10.375 45.691406 -12.109375 48.953125 -15.578125 C 52.273438 -19.171875 53.9375 -24.070312 53.9375 -30.28125 C 53.9375 -36.125 52.351562 -40.992188 49.1875 -44.890625 C 45.769531 -49.078125 41.097656 -51.171875 35.171875 -51.171875 C 29.421875 -51.171875 24.859375 -49.050781 21.484375 -44.8125 C 18.316406 -40.84375 16.734375 -35.863281 16.734375 -29.875 Z M 16.734375 -29.875 "/></g></g></g><g fill="#000000" fill-opacity="1"><g transform="translate(611.194428, 241.053615)"><g><path d="M 7.046875 -61.625 C 11.316406 -62.1875 15.695312 -62.46875 20.1875 -62.46875 C 28.550781 -62.46875 34.90625 -60.503906 39.25 -56.578125 C 43.601562 -52.660156 45.78125 -46.800781 45.78125 -39 C 45.78125 -32.019531 43.394531 -26.503906 38.625 -22.453125 C 34.164062 -18.640625 28.4375 -16.734375 21.4375 -16.734375 C 20.632812 -16.734375 19.757812 -16.78125 18.8125 -16.875 L 18.8125 0 L 7.046875 0 Z M 21.578125 -51.359375 C 20.648438 -51.359375 19.726562 -51.328125 18.8125 -51.265625 L 18.8125 -27.015625 C 19.789062 -26.890625 20.988281 -26.828125 22.40625 -26.828125 C 23.820312 -26.828125 25.296875 -27.125 26.828125 -27.71875 C 28.367188 -28.320312 29.660156 -29.160156 30.703125 -30.234375 C 32.878906 -32.484375 33.96875 -35.4375 33.96875 -39.09375 C 33.96875 -47.269531 29.835938 -51.359375 21.578125 -51.359375 Z M 21.578125 -51.359375 "/></g></g></g><g fill="#000000" fill-opacity="1"><g transform="translate(669.914268, 241.053615)"><g><path d="M 38.765625 -11.0625 C 40.671875 -11.0625 41.992188 -11.242188 42.734375 -11.609375 L 42.921875 -11.5625 L 42.453125 0 L 7.921875 0 L 7.921875 -61.625 C 8.753906 -61.570312 9.675781 -61.53125 10.6875 -61.5 L 13.921875 -61.40625 C 16.066406 -61.34375 18.398438 -61.3125 20.921875 -61.3125 C 27.960938 -61.3125 34.925781 -61.429688 41.8125 -61.671875 C 41.46875 -58.972656 41.296875 -55.363281 41.296875 -50.84375 C 41.296875 -50.351562 41.328125 -49.984375 41.390625 -49.734375 L 41.296875 -49.59375 C 39.703125 -50.0625 37.429688 -50.296875 34.484375 -50.296875 L 19.953125 -50.296875 L 19.953125 -38.53125 L 30.890625 -38.53125 C 34.265625 -38.53125 36.289062 -38.625 36.96875 -38.8125 L 37.109375 -27.421875 C 35.628906 -27.578125 33.722656 -27.65625 31.390625 -27.65625 L 19.953125 -27.65625 L 19.953125 -11.0625 Z M 38.765625 -11.0625 "/></g></g></g><g fill="#000000" fill-opacity="1"><g transform="translate(728.634108, 241.053615)"><g><path d="M 27.75 -23.828125 C 26.832031 -23.765625 25.847656 -23.734375 24.796875 -23.734375 C 23.753906 -23.734375 22.203125 -23.8125 20.140625 -23.96875 L 20.140625 0 L 7.921875 0 L 7.921875 -61.625 C 12.222656 -62.1875 17.507812 -62.46875 23.78125 -62.46875 C 32.320312 -62.46875 38.691406 -60.890625 42.890625 -57.734375 C 47.085938 -54.585938 49.1875 -49.722656 49.1875 -43.140625 C 49.1875 -38.046875 47.265625 -33.6875 43.421875 -30.0625 C 42.160156 -28.882812 40.71875 -27.867188 39.09375 -27.015625 L 48.5 -7.1875 C 50.34375 -3.101562 51.753906 -0.675781 52.734375 0.09375 L 52.5 0.328125 C 49.519531 -0.171875 44.832031 -0.15625 38.4375 0.375 Z M 24.65625 -51.578125 C 23.09375 -51.578125 21.585938 -51.503906 20.140625 -51.359375 L 20.140625 -33.75 C 21.648438 -33.53125 23.414062 -33.421875 25.4375 -33.421875 C 27.46875 -33.421875 29.175781 -33.597656 30.5625 -33.953125 C 31.945312 -34.304688 33.144531 -34.851562 34.15625 -35.59375 C 36.34375 -37.21875 37.4375 -39.65625 37.4375 -42.90625 C 37.4375 -46.164062 36.296875 -48.457031 34.015625 -49.78125 C 31.898438 -50.976562 28.78125 -51.578125 24.65625 -51.578125 Z M 24.65625 -51.578125 "/></g></g></g><g fill="#000000" fill-opacity="1"><g transform="translate(795.052186, 241.053615)"><g><path d="M 30.0625 0.28125 C 28.582031 0.09375 24.785156 0 18.671875 0 L 17.1875 0 L 17.1875 -50.984375 L 8.0625 -50.984375 C 5.363281 -50.984375 3.765625 -50.84375 3.265625 -50.5625 C 2.773438 -50.289062 2.394531 -50.046875 2.125 -49.828125 L 1.984375 -49.875 L 1.984375 -61.671875 L 2.125 -61.8125 C 3.132812 -61.476562 5.867188 -61.3125 10.328125 -61.3125 L 39.234375 -61.3125 C 41.929688 -61.3125 43.523438 -61.445312 44.015625 -61.71875 C 44.515625 -62 44.898438 -62.25 45.171875 -62.46875 L 45.3125 -62.421875 L 45.3125 -50.609375 L 45.171875 -50.46875 C 44.160156 -50.8125 41.425781 -50.984375 36.96875 -50.984375 L 30.0625 -50.984375 Z M 30.0625 0.28125 "/></g></g></g><g fill="#000000" fill-opacity="1"><g transform="translate(853.772025, 241.053615)"><g><path d="M 20.796875 0 C 21.191406 -1.195312 21.390625 -3.992188 21.390625 -8.390625 L 21.390625 -21.203125 C 16.078125 -32.910156 12.679688 -40.21875 11.203125 -43.125 C 9.722656 -46.03125 8.476562 -48.328125 7.46875 -50.015625 C 4.269531 -55.421875 2.335938 -58.523438 1.671875 -59.328125 C 1.015625 -60.128906 0.347656 -60.789062 -0.328125 -61.3125 L 15.578125 -61.3125 C 15.921875 -60.695312 16.382812 -59.789062 16.96875 -58.59375 L 28.125 -35.03125 C 28.644531 -36.320312 29.257812 -37.765625 29.96875 -39.359375 C 36.664062 -53.773438 40.0625 -61.09375 40.15625 -61.3125 L 55.359375 -61.3125 C 53.796875 -60.050781 51.875 -57.40625 49.59375 -53.375 C 48.894531 -52.175781 48.191406 -50.8125 47.484375 -49.28125 L 37.0625 -27.5625 C 35.894531 -24.945312 34.894531 -22.597656 34.0625 -20.515625 L 34.0625 -7.28125 C 34.0625 -4.207031 34.25 -1.78125 34.625 0 Z M 20.796875 0 "/></g></g></g><g fill="#000000" fill-opacity="1"><g transform="translate(403.873135, 349.602594)"><g><path d="M 44.9375 -57.890625 L 44.0625 -44.34375 L 43.75 -44.25 C 41.46875 -47.664062 37.59375 -49.878906 32.125 -50.890625 C 30.40625 -51.222656 28.753906 -51.390625 27.171875 -51.390625 C 25.585938 -51.390625 24.234375 -51.25 23.109375 -50.96875 C 21.992188 -50.695312 21.035156 -50.300781 20.234375 -49.78125 C 18.546875 -48.675781 17.703125 -47.234375 17.703125 -45.453125 C 17.703125 -43.117188 18.4375 -41.367188 19.90625 -40.203125 C 21.75 -38.785156 24.804688 -37.789062 29.078125 -37.21875 C 33.359375 -36.65625 36.785156 -35.878906 39.359375 -34.890625 C 41.941406 -33.910156 44.066406 -32.664062 45.734375 -31.15625 C 48.867188 -28.332031 50.4375 -24.335938 50.4375 -19.171875 C 50.4375 -12.410156 47.882812 -7.203125 42.78125 -3.546875 C 38.414062 -0.410156 32.914062 1.15625 26.28125 1.15625 C 20.925781 1.15625 15.640625 0.140625 10.421875 -1.890625 C 8.703125 -2.566406 7.195312 -3.347656 5.90625 -4.234375 L 6.40625 -19.640625 L 6.59375 -19.78125 C 10.40625 -13.195312 16.660156 -9.90625 25.359375 -9.90625 C 31.535156 -9.90625 35.617188 -11.394531 37.609375 -14.375 C 38.285156 -15.394531 38.625 -16.523438 38.625 -17.765625 C 38.625 -19.015625 38.425781 -20.046875 38.03125 -20.859375 C 37.632812 -21.671875 36.972656 -22.367188 36.046875 -22.953125 C 34.265625 -24.117188 31.269531 -24.898438 27.0625 -25.296875 C 22.851562 -25.703125 19.410156 -26.457031 16.734375 -27.5625 C 14.054688 -28.664062 11.921875 -30.035156 10.328125 -31.671875 C 7.441406 -34.617188 6 -38.734375 6 -44.015625 C 6 -49.492188 7.914062 -53.921875 11.75 -57.296875 C 15.65625 -60.742188 20.921875 -62.46875 27.546875 -62.46875 C 34.171875 -62.46875 39.96875 -60.941406 44.9375 -57.890625 Z M 44.9375 -57.890625 "/></g></g></g><g fill="#000000" fill-opacity="1"><g transform="translate(470.291229, 349.602594)"><g><path d="M 38.765625 -11.0625 C 40.671875 -11.0625 41.992188 -11.242188 42.734375 -11.609375 L 42.921875 -11.5625 L 42.453125 0 L 7.921875 0 L 7.921875 -61.625 C 8.753906 -61.570312 9.675781 -61.53125 10.6875 -61.5 L 13.921875 -61.40625 C 16.066406 -61.34375 18.398438 -61.3125 20.921875 -61.3125 C 27.960938 -61.3125 34.925781 -61.429688 41.8125 -61.671875 C 41.46875 -58.972656 41.296875 -55.363281 41.296875 -50.84375 C 41.296875 -50.351562 41.328125 -49.984375 41.390625 -49.734375 L 41.296875 -49.59375 C 39.703125 -50.0625 37.429688 -50.296875 34.484375 -50.296875 L 19.953125 -50.296875 L 19.953125 -38.53125 L 30.890625 -38.53125 C 34.265625 -38.53125 36.289062 -38.625 36.96875 -38.8125 L 37.109375 -27.421875 C 35.628906 -27.578125 33.722656 -27.65625 31.390625 -27.65625 L 19.953125 -27.65625 L 19.953125 -11.0625 Z M 38.765625 -11.0625 "/></g></g></g><g fill="#000000" fill-opacity="1"><g transform="translate(529.011075, 349.602594)"><g><path d="M 38.765625 -11.0625 C 40.671875 -11.0625 41.992188 -11.242188 42.734375 -11.609375 L 42.921875 -11.5625 L 42.453125 0 L 7.921875 0 L 7.921875 -61.625 C 8.753906 -61.570312 9.675781 -61.53125 10.6875 -61.5 L 13.921875 -61.40625 C 16.066406 -61.34375 18.398438 -61.3125 20.921875 -61.3125 C 27.960938 -61.3125 34.925781 -61.429688 41.8125 -61.671875 C 41.46875 -58.972656 41.296875 -55.363281 41.296875 -50.84375 C 41.296875 -50.351562 41.328125 -49.984375 41.390625 -49.734375 L 41.296875 -49.59375 C 39.703125 -50.0625 37.429688 -50.296875 34.484375 -50.296875 L 19.953125 -50.296875 L 19.953125 -38.53125 L 30.890625 -38.53125 C 34.265625 -38.53125 36.289062 -38.625 36.96875 -38.8125 L 37.109375 -27.421875 C 35.628906 -27.578125 33.722656 -27.65625 31.390625 -27.65625 L 19.953125 -27.65625 L 19.953125 -11.0625 Z M 38.765625 -11.0625 "/></g></g></g><g fill="#000000" fill-opacity="1"><g transform="translate(587.730915, 349.602594)"><g><path d="M 19.6875 0.28125 C 17.5625 0.09375 14.851562 0 11.5625 0 L 7.921875 0 L 7.921875 -61.5 L 9.765625 -61.40625 C 11.054688 -61.34375 12.023438 -61.3125 12.671875 -61.3125 L 14.015625 -61.3125 C 16.710938 -61.3125 18.601562 -61.429688 19.6875 -61.671875 L 19.6875 -35.640625 L 38.359375 -61.5 C 40.316406 -61.375 41.972656 -61.3125 43.328125 -61.3125 L 45.859375 -61.3125 C 49.023438 -61.3125 51.285156 -61.429688 52.640625 -61.671875 L 34.84375 -38.4375 L 52.359375 -3.6875 C 53.097656 -2 53.789062 -0.769531 54.4375 0 L 51.625 0 C 45.144531 0 41.101562 0.125 39.5 0.375 C 39.164062 -1.6875 38.707031 -3.488281 38.125 -5.03125 L 26.375 -27.421875 L 19.6875 -18.671875 Z M 19.6875 0.28125 "/></g></g></g><g fill="#000000" fill-opacity="1"><g transform="translate(654.149015, 349.602594)"><g><path d="M 38.765625 -11.0625 C 40.671875 -11.0625 41.992188 -11.242188 42.734375 -11.609375 L 42.921875 -11.5625 L 42.453125 0 L 7.921875 0 L 7.921875 -61.625 C 8.753906 -61.570312 9.675781 -61.53125 10.6875 -61.5 L 13.921875 -61.40625 C 16.066406 -61.34375 18.398438 -61.3125 20.921875 -61.3125 C 27.960938 -61.3125 34.925781 -61.429688 41.8125 -61.671875 C 41.46875 -58.972656 41.296875 -55.363281 41.296875 -50.84375 C 41.296875 -50.351562 41.328125 -49.984375 41.390625 -49.734375 L 41.296875 -49.59375 C 39.703125 -50.0625 37.429688 -50.296875 34.484375 -50.296875 L 19.953125 -50.296875 L 19.953125 -38.53125 L 30.890625 -38.53125 C 34.265625 -38.53125 36.289062 -38.625 36.96875 -38.8125 L 37.109375 -27.421875 C 35.628906 -27.578125 33.722656 -27.65625 31.390625 -27.65625 L 19.953125 -27.65625 L 19.953125 -11.0625 Z M 38.765625 -11.0625 "/></g></g></g><g fill="#000000" fill-opacity="1"><g transform="translate(712.868855, 349.602594)"><g><path d="M 27.75 -23.828125 C 26.832031 -23.765625 25.847656 -23.734375 24.796875 -23.734375 C 23.753906 -23.734375 22.203125 -23.8125 20.140625 -23.96875 L 20.140625 0 L 7.921875 0 L 7.921875 -61.625 C 12.222656 -62.1875 17.507812 -62.46875 23.78125 -62.46875 C 32.320312 -62.46875 38.691406 -60.890625 42.890625 -57.734375 C 47.085938 -54.585938 49.1875 -49.722656 49.1875 -43.140625 C 49.1875 -38.046875 47.265625 -33.6875 43.421875 -30.0625 C 42.160156 -28.882812 40.71875 -27.867188 39.09375 -27.015625 L 48.5 -7.1875 C 50.34375 -3.101562 51.753906 -0.675781 52.734375 0.09375 L 52.5 0.328125 C 49.519531 -0.171875 44.832031 -0.15625 38.4375 0.375 Z M 24.65625 -51.578125 C 23.09375 -51.578125 21.585938 -51.503906 20.140625 -51.359375 L 20.140625 -33.75 C 21.648438 -33.53125 23.414062 -33.421875 25.4375 -33.421875 C 27.46875 -33.421875 29.175781 -33.597656 30.5625 -33.953125 C 31.945312 -34.304688 33.144531 -34.851562 34.15625 -35.59375 C 36.34375 -37.21875 37.4375 -39.65625 37.4375 -42.90625 C 37.4375 -46.164062 36.296875 -48.457031 34.015625 -49.78125 C 31.898438 -50.976562 28.78125 -51.578125 24.65625 -51.578125 Z M 24.65625 -51.578125 "/></g></g></g><g fill="#000000" fill-opacity="1"><g transform="translate(779.286955, 349.602594)"><g><path d="M 44.9375 -57.890625 L 44.0625 -44.34375 L 43.75 -44.25 C 41.46875 -47.664062 37.59375 -49.878906 32.125 -50.890625 C 30.40625 -51.222656 28.753906 -51.390625 27.171875 -51.390625 C 25.585938 -51.390625 24.234375 -51.25 23.109375 -50.96875 C 21.992188 -50.695312 21.035156 -50.300781 20.234375 -49.78125 C 18.546875 -48.675781 17.703125 -47.234375 17.703125 -45.453125 C 17.703125 -43.117188 18.4375 -41.367188 19.90625 -40.203125 C 21.75 -38.785156 24.804688 -37.789062 29.078125 -37.21875 C 33.359375 -36.65625 36.785156 -35.878906 39.359375 -34.890625 C 41.941406 -33.910156 44.066406 -32.664062 45.734375 -31.15625 C 48.867188 -28.332031 50.4375 -24.335938 50.4375 -19.171875 C 50.4375 -12.410156 47.882812 -7.203125 42.78125 -3.546875 C 38.414062 -0.410156 32.914062 1.15625 26.28125 1.15625 C 20.925781 1.15625 15.640625 0.140625 10.421875 -1.890625 C 8.703125 -2.566406 7.195312 -3.347656 5.90625 -4.234375 L 6.40625 -19.640625 L 6.59375 -19.78125 C 10.40625 -13.195312 16.660156 -9.90625 25.359375 -9.90625 C 31.535156 -9.90625 35.617188 -11.394531 37.609375 -14.375 C 38.285156 -15.394531 38.625 -16.523438 38.625 -17.765625 C 38.625 -19.015625 38.425781 -20.046875 38.03125 -20.859375 C 37.632812 -21.671875 36.972656 -22.367188 36.046875 -22.953125 C 34.265625 -24.117188 31.269531 -24.898438 27.0625 -25.296875 C 22.851562 -25.703125 19.410156 -26.457031 16.734375 -27.5625 C 14.054688 -28.664062 11.921875 -30.035156 10.328125 -31.671875 C 7.441406 -34.617188 6 -38.734375 6 -44.015625 C 6 -49.492188 7.914062 -53.921875 11.75 -57.296875 C 15.65625 -60.742188 20.921875 -62.46875 27.546875 -62.46875 C 34.171875 -62.46875 39.96875 -60.941406 44.9375 -57.890625 Z M 44.9375 -57.890625 "/></g></g></g></svg>